<svg width="28" height="29" viewBox="0 0 28 29" fill="none" xmlns="http://www.w3.org/2000/svg">
<path d="M6.50701 1.80337C5.52318 1.60139 2.44981 1.64181 1.56436 1.80339M6.87595 2.00537C6.93044 3.73548 7.02549 6.81769 6.99355 7.77772M6.73488 7.77774C6.36034 7.38371 2.87567 7.28517 2.1266 7.28517C1.37753 7.28517 1.185 7.41132 1.28389 6.89114C1.36512 6.46388 1.30597 3.68926 1.16663 1.91104M6.50701 11.5811C5.52318 11.3792 2.44981 11.4196 1.56436 11.5812M6.87595 11.7831C6.93044 13.5133 7.02549 16.5955 6.99355 17.5555M6.73488 17.5555C6.36034 17.1615 2.87567 17.0629 2.1266 17.0629C1.37753 17.0629 1.185 17.1891 1.28389 16.6689C1.36512 16.2417 1.30597 13.467 1.16663 11.6888M6.50701 21.3589C5.52318 21.1569 2.44981 21.1974 1.56436 21.3589M6.87595 21.5609C6.93044 23.291 7.02549 26.3732 6.99355 27.3333M6.73488 27.3333C6.36034 26.9393 2.87567 26.8407 2.1266 26.8407C1.37753 26.8407 1.185 26.9669 1.28389 26.4467C1.36512 26.0194 1.30597 23.2448 1.16663 21.4666M26.3403 1.80337C25.3565 1.60139 22.2831 1.64181 21.3977 1.80339M26.7093 2.00537C26.7638 3.73548 26.8588 6.81769 26.8269 7.77772M26.5682 7.77774C26.1937 7.38371 22.709 7.28517 21.9599 7.28517C21.2109 7.28517 21.0183 7.41132 21.1172 6.89114C21.1984 6.46388 21.1393 3.68926 21 1.91104M26.3403 11.5811C25.3565 11.3792 22.2831 11.4196 21.3977 11.5812M26.7093 11.7831C26.7638 13.5133 26.8588 16.5955 26.8269 17.5555M26.5682 17.5555C26.1937 17.1615 22.709 17.0629 21.9599 17.0629C21.2109 17.0629 21.0183 17.1891 21.1172 16.6689C21.1984 16.2417 21.1393 13.467 21 11.6888M26.3403 21.3589C25.3565 21.1569 22.2831 21.1974 21.3977 21.3589M26.7093 21.5609C26.7638 23.291 26.8588 26.3732 26.8269 27.3333M26.5682 27.3333C26.1937 26.9393 22.709 26.8407 21.9599 26.8407C21.2109 26.8407 21.0183 26.9669 21.1172 26.4467C21.1984 26.0194 21.1393 23.2448 21 21.4666M16.4237 1.80337C15.4398 1.60139 12.3665 1.64181 11.481 1.80339M16.7926 2.00537C16.8471 3.73548 16.9422 6.81769 16.9102 7.77772M16.6515 7.77774C16.277 7.38371 12.7923 7.28517 12.0433 7.28517C11.2942 7.28517 11.1017 7.41132 11.2006 6.89114C11.2818 6.46388 11.2226 3.68926 11.0833 1.91104M16.4237 11.5811C15.4398 11.3792 12.3665 11.4196 11.481 11.5812M16.7926 11.7831C16.8471 13.5133 16.9422 16.5955 16.9102 17.5555M16.6515 17.5555C16.277 17.1615 12.7923 17.0629 12.0433 17.0629C11.2942 17.0629 11.1017 17.1891 11.2006 16.6689C11.2818 16.2417 11.2226 13.467 11.0833 11.6888M16.4237 21.3589C15.4398 21.1569 12.3665 21.1974 11.481 21.3589M16.7926 21.5609C16.8471 23.291 16.9422 26.3732 16.9102 27.3333M16.6515 27.3333C16.277 26.9393 12.7923 26.8407 12.0433 26.8407C11.2942 26.8407 11.1017 26.9669 11.2006 26.4467C11.2818 26.0194 11.2226 23.2448 11.0833 21.4666" stroke="black" stroke-linecap="round"/>
<rect x="11.1876" y="11.5199" width="5.70825" height="5.44873" fill="black"/>
</svg>
