<svg width="28" height="28" viewBox="0 0 28 28" fill="none" xmlns="http://www.w3.org/2000/svg">
<path d="M15.475 10.7586C15.475 10.9866 15.2875 11.1714 15.0562 11.1714C14.8248 11.1714 14.6373 10.9866 14.6373 10.7586C14.6373 10.5306 14.8248 10.3457 15.0562 10.3457C15.2875 10.3457 15.475 10.5306 15.475 10.7586Z" fill="black"/>
<path d="M9.5552 10.7586C9.5552 10.9866 9.36767 11.1714 9.13634 11.1714C8.90501 11.1714 8.71749 10.9866 8.71749 10.7586C8.71749 10.5306 8.90501 10.3457 9.13634 10.3457C9.36767 10.3457 9.5552 10.5306 9.5552 10.7586Z" fill="black"/>
<path d="M23.0359 9.79121C23.0888 9.96584 23.14 10.1404 23.1895 10.3148M23.0359 9.79121L18.7447 11.5205M23.0359 9.79121C22.9954 9.61143 22.952 9.4352 22.9057 9.26248M13.3143 1.30429C13.2855 1.3037 13.259 1.30111 13.2306 1.29613C12.9938 1.25444 12.738 1.221 12.4681 1.19855M13.3143 1.30429C13.8031 1.31435 14.3921 1.3829 15.0372 1.53012M13.3143 1.30429L11.805 3.64872M4.65512 22.0673C4.71155 21.8022 4.76439 21.5488 4.81382 21.3065M4.65512 22.0673L10.4341 19.8362M4.65512 22.0673C4.60968 22.2809 4.54261 22.5103 4.46327 22.75M3.57071 26.5875C3.63583 26.7943 3.87162 26.8707 4.08441 26.8164C4.3619 26.7456 4.69376 26.6694 5.05431 26.5952M3.57071 26.5875C3.50362 26.3744 3.4878 26.1333 3.50848 25.8732M3.57071 26.5875L10.1591 23.6323M10.8301 20.2813C10.8154 20.0642 10.6477 19.8916 10.4341 19.8362M10.8301 20.2813L4.46327 22.75M10.8301 20.2813C10.8441 20.4881 10.8472 20.6925 10.8406 20.894M10.4341 19.8362C10.2114 19.7784 9.9611 19.7008 9.69825 19.6004M6.7717 16.5786C6.76586 16.5469 6.76359 16.5153 6.76442 16.4831C6.76856 16.3213 6.77213 16.1479 6.77517 15.9652M6.7717 16.5786L5.44242 16.9166M6.7717 16.5786C6.82054 16.844 6.89855 17.0904 7 17.3189M6.76318 8.77125C6.76318 8.67058 6.77236 8.55703 6.79054 8.43305M6.76318 8.77125L4.66243 7.98404M6.76318 8.77125C6.76318 8.84403 6.76387 8.96273 6.76504 9.11954M11.805 3.64872C11.9166 3.66068 12.0199 3.71461 12.0975 3.79442M11.805 3.64872C11.6861 3.63596 11.569 3.6293 11.4537 3.62837M12.0975 3.79442L12.6135 4.32514M12.0975 3.79442L15.0372 1.53012M18.5469 10.4277C18.6278 10.5109 18.6774 10.6179 18.6868 10.7327M18.5469 10.4277L22.5586 8.16663M18.5469 10.4277L18.2781 10.1512M18.6868 10.7327C18.6959 10.8424 18.7051 10.9598 18.7143 11.0833M18.6868 10.7327L22.7571 8.74996M21.8426 26.1526C21.2994 26.0255 20.7593 25.93 20.3692 25.8732C20.306 25.864 20.2452 25.8439 20.1895 25.8131L20.1201 25.7747C20.0435 25.7324 19.9549 25.7108 19.8671 25.7077C19.5676 25.6969 19.288 25.6504 19.0273 25.5738M21.8426 26.1526C22.2636 26.2511 22.6865 26.3686 23.0427 26.5017C23.4094 26.6388 23.9204 26.4472 23.9926 26.0674C24.0191 25.9283 24.0452 25.7826 24.0709 25.6306M21.8426 26.1526L24.0709 25.6306M24.0709 25.6306C24.0855 25.5444 24.0998 25.4562 24.1141 25.366M24.157 25.0833H18.0326M24.157 25.0833C24.1429 25.1796 24.1286 25.2738 24.1141 25.366M24.157 25.0833C24.1901 24.8571 24.2218 24.6197 24.2518 24.3718M18.0326 25.0833C18.3283 25.297 18.6589 25.4655 19.0273 25.5738M18.0326 25.0833C17.799 24.9145 17.5872 24.7175 17.3957 24.5M19.0273 25.5738L24.1141 25.366M24.2518 24.3718L17.3957 24.5M24.2518 24.3718C24.2772 24.1616 24.3012 23.9438 24.3237 23.719M17.3957 24.5C17.293 24.3832 17.1962 24.2606 17.105 24.1331M17.105 24.1331L24.3237 23.719M17.105 24.1331C16.9904 23.973 16.8847 23.8053 16.7875 23.6323M24.3237 23.719C24.3444 23.5117 24.3637 23.2984 24.3814 23.0794M24.3814 23.0794L16.7875 23.6323M24.3814 23.0794C24.4 22.849 24.4168 22.6123 24.4315 22.3697M16.7875 23.6323C16.6867 23.4528 16.595 23.2676 16.512 23.0794M16.512 23.0794L24.4315 22.3697M16.512 23.0794C16.4197 22.8703 16.3382 22.6573 16.2667 22.4441M24.4315 22.3697C24.4624 21.8611 24.484 21.3266 24.4939 20.7699M24.4708 21.5833L16.2667 22.4441M16.2667 22.4441C16.1241 22.0185 16.0215 21.5919 15.9539 21.1924M16.0837 21.8146L24.4939 20.7699M24.4939 20.7699C24.498 20.5401 24.5001 20.3065 24.5 20.0694M24.5 20.0694L15.9539 21.1924M24.5 20.0694C24.4999 19.8007 24.4969 19.5274 24.4909 19.25M15.9539 21.1924C15.9225 21.0072 15.8986 20.8279 15.8817 20.6572M15.8817 20.6572L24.4909 19.25M15.8817 20.6572C15.8609 20.4463 15.8506 20.2487 15.85 20.0694M24.4909 19.25C24.4874 19.0889 24.4828 18.9265 24.4772 18.7628M24.4772 18.7628L15.85 20.0694M24.4772 18.7628C24.4679 18.4919 24.4556 18.2173 24.44 17.9395M15.85 20.0694C15.8494 19.8727 15.8604 19.6981 15.8817 19.5528M15.8817 19.5528C15.9141 19.3318 15.9704 19.1783 16.046 19.1167C16.2548 18.9465 16.4678 18.7611 16.6782 18.5649M15.8817 19.5528L24.44 17.9395M24.44 17.9395C24.4265 17.698 24.4106 17.454 24.3921 17.2078M24.3921 17.2078L16.6782 18.5649M24.3921 17.2078C24.3739 16.9667 24.3533 16.7235 24.33 16.4783M16.6782 18.5649C16.8913 18.3661 17.1016 18.1562 17.3022 17.9395M17.3022 17.9395L24.33 16.4783M17.3022 17.9395C17.5566 17.6649 17.7952 17.3795 18.0037 17.0924M24.33 16.4783C24.3045 16.209 24.2758 15.9374 24.2437 15.6636M24.2437 15.6636L18.0037 17.0924M24.2437 15.6636C24.2165 15.432 24.187 15.1989 24.1549 14.9645M18.0037 17.0924C18.1525 16.8874 18.286 16.6816 18.3989 16.4783M18.3989 16.4783C18.5126 16.2735 18.6054 16.0711 18.6719 15.8746C18.677 15.8595 18.682 15.8436 18.6868 15.8272M18.3989 16.4783L24.1549 14.9645M24.1549 14.9645C24.1319 14.7969 24.1077 14.6285 24.0821 14.4595M24.0821 14.4595L18.6868 15.8272M24.0821 14.4595C24.0527 14.2652 24.0215 14.0701 23.9885 13.8742M18.6868 15.8272C18.727 15.691 18.7578 15.5115 18.7805 15.2999M18.7805 15.2999L23.9885 13.8742M18.7805 15.2999C18.7976 15.1407 18.8103 14.9633 18.8191 14.7726M23.9885 13.8742C23.9492 13.6407 23.9072 13.4063 23.8626 13.1709M23.8626 13.1709L18.8191 14.7726M23.8626 13.1709C23.8207 12.9504 23.7765 12.729 23.7298 12.507M18.8191 14.7726C18.8274 14.5907 18.8323 14.3966 18.8342 14.1945M18.8342 14.1945L23.7298 12.507M18.8342 14.1945C18.8356 14.0548 18.8355 13.9113 18.8342 13.7654M23.7298 12.507C23.6958 12.3456 23.6605 12.1837 23.6238 12.0216M23.6238 12.0216L18.8342 13.7654M23.6238 12.0216C23.58 11.8276 23.5343 11.6332 23.4865 11.4385M18.8342 13.7654C18.8325 13.5705 18.8287 13.3713 18.8231 13.1709M18.8231 13.1709L23.4865 11.4385M18.8231 13.1709C18.8183 12.9996 18.8123 12.8275 18.8053 12.6566M23.4865 11.4385C23.4376 11.2388 23.3865 11.0387 23.3333 10.8384M23.3333 10.8384L18.8053 12.6566M23.3333 10.8384C23.287 10.664 23.2391 10.4895 23.1895 10.3148M18.8053 12.6566C18.798 12.4788 18.7896 12.3025 18.7805 12.1298M18.7805 12.1298L23.1895 10.3148M18.7805 12.1298C18.7695 11.9199 18.7573 11.7155 18.7447 11.5205M18.7447 11.5205C18.7348 11.3683 18.7245 11.2219 18.7143 11.0833M18.7143 11.0833L22.9057 9.26248M22.9057 9.26248C22.859 9.08809 22.8094 8.91727 22.7571 8.74996M22.7571 8.74996C22.6947 8.55057 22.6285 8.35616 22.5586 8.16663M22.5586 8.16663C22.5003 8.00864 22.4395 7.85404 22.3763 7.70275M22.3763 7.70275L18.2781 10.1512M22.3763 7.70275C22.3091 7.54188 22.2391 7.38476 22.1667 7.23132M18.2781 10.1512L17.9281 9.79121M17.9281 9.79121L22.1667 7.23132M17.9281 9.79121L17.6045 9.45846M22.1667 7.23132C22.0879 7.06455 22.0061 6.90211 21.9215 6.74393M21.9215 6.74393L17.6045 9.45846M21.9215 6.74393C21.8431 6.59726 21.7623 6.45424 21.6793 6.3148M17.6045 9.45846L17.275 9.11954M17.275 9.11954L21.6793 6.3148M17.275 9.11954L16.9157 8.74996M21.6793 6.3148C21.5807 6.1493 21.479 5.98885 21.3744 5.83329M21.3744 5.83329L16.9157 8.74996M21.3744 5.83329C21.2683 5.67538 21.1592 5.52252 21.0475 5.37457M16.9157 8.74996L16.6075 8.43305M16.6075 8.43305L21.0475 5.37457M16.6075 8.43305L16.171 7.98404M21.0475 5.37457C20.9392 5.23121 20.8284 5.09246 20.7154 4.95821M20.7154 4.95821L16.171 7.98404M20.7154 4.95821C20.6175 4.84177 20.5178 4.72871 20.4167 4.61895M16.171 7.98404L15.7813 7.58329M15.7813 7.58329L20.4167 4.61895M15.7813 7.58329L15.4391 7.23132M20.4167 4.61895C20.2869 4.47819 20.1548 4.34285 20.0205 4.21277M20.0205 4.21277L15.4391 7.23132M20.0205 4.21277C19.8699 4.06677 19.7166 3.9274 19.5613 3.79442M15.4391 7.23132L15.0372 6.81791M15.0372 6.81791L19.5613 3.79442M15.0372 6.81791L14.647 6.41663M19.5613 3.79442C19.4047 3.66042 19.2461 3.5329 19.0858 3.41162M19.0858 3.41162L14.647 6.41663M19.0858 3.41162C18.9307 3.2942 18.7741 3.18263 18.6165 3.07669M14.647 6.41663L14.3086 6.0686M14.3086 6.0686L18.6165 3.07669M14.3086 6.0686L13.8949 5.64312M18.6165 3.07669C18.3886 2.92345 18.1586 2.78198 17.9281 2.6516M17.9281 2.6516L13.8949 5.64312M17.9281 2.6516C17.7551 2.5538 17.5819 2.46224 17.4089 2.37663M13.8949 5.64312L13.6338 5.37457M13.6338 5.37457L17.4089 2.37663M13.6338 5.37457L13.1295 4.85586M17.4089 2.37663C17.1403 2.24364 16.8724 2.12502 16.6075 2.01969M16.6075 2.01969L13.1295 4.85586M16.6075 2.01969C16.3278 1.90842 16.0515 1.81199 15.7813 1.72913M13.1295 4.85586L12.6135 4.32514M12.6135 4.32514L15.7813 1.72913M15.7813 1.72913C15.527 1.65111 15.2782 1.58512 15.0372 1.53012M12.4681 1.19855L11.4537 3.62837M12.4681 1.19855C12.2123 1.17728 11.9439 1.16587 11.6667 1.16666M11.4537 3.62837C11.3708 3.6277 11.2888 3.63001 11.2077 3.63516M11.2077 3.63516L11.6667 1.16666M11.2077 3.63516C11.0217 3.64698 10.8409 3.67377 10.6654 3.71389M11.6667 1.16666C11.3427 1.16759 11.0068 1.18517 10.6654 1.22313M10.6654 1.22313L10.9253 3.62837M10.6654 1.22313C10.4787 1.24389 10.2903 1.27074 10.1012 1.30429M10.6654 3.71389L10.1012 1.30429M10.6654 3.71389C10.5284 3.7452 10.3947 3.78463 10.2642 3.8314M10.1012 1.30429C9.78689 1.3601 9.47082 1.43444 9.15783 1.53012M9.15783 1.53012L10.2642 3.8314M9.15783 1.53012C8.91562 1.60416 8.67526 1.69097 8.43895 1.79186M10.2642 3.8314C10.1069 3.88779 9.95447 3.95484 9.80691 4.03119M9.80691 4.03119L8.43895 1.79186M9.80691 4.03119C9.63941 4.11786 9.47822 4.21651 9.3235 4.32514M8.43895 1.79186C8.198 1.89474 7.96126 2.01224 7.7311 2.14576M7.7311 2.14576L9.3235 4.32514M7.7311 2.14576C7.55302 2.24907 7.37887 2.36196 7.20975 2.48507M9.3235 4.32514C9.19348 4.41643 9.06802 4.51476 8.94723 4.61895M8.94723 4.61895L7.20975 2.48507M8.94723 4.61895C8.82283 4.72626 8.70337 4.83977 8.58895 4.95821M7.20975 2.48507C7.02861 2.61693 6.85323 2.76053 6.68496 2.91663M6.68496 2.91663L8.58895 4.95821M6.68496 2.91663C6.52114 3.06859 6.36406 3.23241 6.21496 3.40881M8.58895 4.95821C8.46027 5.09139 8.33797 5.2308 8.22217 5.37457M8.22217 5.37457L6.21496 3.40881M8.22217 5.37457C8.10225 5.52347 7.98931 5.67706 7.8835 5.83329M6.21496 3.40881C6.05248 3.60102 5.89946 3.80817 5.75751 4.03119M5.75751 4.03119L7.8835 5.83329M5.75751 4.03119C5.63986 4.21603 5.52981 4.41178 5.42828 4.61895M7.8835 5.83329C7.79415 5.96524 7.70988 6.09907 7.63079 6.23355M7.63079 6.23355L5.42828 4.61895M7.63079 6.23355C7.53325 6.39941 7.44358 6.56627 7.36198 6.73179M5.42828 4.61895C5.33047 4.81852 5.24056 5.0287 5.15936 5.24996M5.15936 5.24996L7.36198 6.73179M5.15936 5.24996C5.09093 5.43644 5.02868 5.63079 4.97311 5.83329M7.36198 6.73179C7.26588 6.92673 7.18095 7.11983 7.10749 7.30731M7.10749 7.30731L4.97311 5.83329M7.10749 7.30731C7.01456 7.54443 6.93998 7.77256 6.88431 7.98404M4.97311 5.83329C4.92169 6.02068 4.87599 6.21505 4.83639 6.41663M4.83639 6.41663L6.88431 7.98404M4.83639 6.41663C4.78541 6.67609 4.74455 6.94749 4.71462 7.23132M6.88431 7.98404C6.84209 8.1444 6.81075 8.29518 6.79054 8.43305M6.79054 8.43305L4.71462 7.23132M4.71462 7.23132C4.68912 7.47311 4.67155 7.72392 4.66243 7.98404M4.66243 7.98404C4.65758 8.12237 4.65512 8.26332 4.65512 8.40696C4.65512 9.28422 4.67329 10.0384 4.70413 10.6941M6.76504 9.11954L4.66667 8.74996L4.65512 9.33329L6.76835 9.53152M6.76504 9.11954C6.76591 9.23669 6.76705 9.3751 6.76835 9.53152M6.76835 9.53152C6.76934 9.65002 6.77043 9.77886 6.77158 9.91663M6.77158 9.91663H4.66667L4.70413 10.6941M6.77158 9.91663C6.77333 10.1265 6.77521 10.357 6.77709 10.6033M4.70413 10.6941L6.77709 10.6033M4.70413 10.6941C4.71224 10.8667 4.72124 11.0324 4.73101 11.1918M6.77709 10.6033C6.77827 10.7576 6.77944 10.918 6.78058 11.0833M4.73101 11.1918L6.78058 11.0833M4.73101 11.1918C4.74488 11.4182 4.76032 11.6316 4.77703 11.8335M6.78058 11.0833C6.78166 11.2404 6.78271 11.402 6.7837 11.567M6.7837 11.567L4.77703 11.8335M6.7837 11.567C6.78502 11.7893 6.78624 12.0179 6.78726 12.25M4.77703 11.8335C4.79801 12.0869 4.82101 12.3221 4.84545 12.5415M4.84545 12.5415L6.78726 12.25M4.84545 12.5415C4.86923 12.7551 4.89437 12.9538 4.92036 13.14M6.78726 12.25C6.78785 12.384 6.78838 12.5192 6.78883 12.6551M6.78883 12.6551L4.92036 13.14M6.78883 12.6551C6.78952 12.8614 6.79003 13.0693 6.79032 13.277M4.92036 13.14C4.94556 13.3205 4.97156 13.4893 4.99786 13.6484M4.99786 13.6484L6.79032 13.277M4.99786 13.6484C5.05175 13.9743 5.10696 14.2598 5.15936 14.5231M6.79032 13.277C6.79065 13.5187 6.79067 13.7602 6.79032 13.9988M6.79032 13.9988L5.15936 14.5231M6.79032 13.9988C6.78993 14.2549 6.78911 14.5078 6.78775 14.7538M5.15936 14.5231C5.20456 14.7502 5.24767 14.9608 5.28605 15.1666M5.28605 15.1666L6.78775 14.7538M5.28605 15.1666C5.31408 15.317 5.3396 15.4649 5.36155 15.6148M6.78775 14.7538C6.78645 14.989 6.78466 15.218 6.78229 15.4379M6.78229 15.4379L5.36155 15.6148M6.78229 15.4379C6.78033 15.6205 6.77797 15.7968 6.77517 15.9652M5.36155 15.6148C5.38975 15.8073 5.41208 16.0033 5.42637 16.2123M5.42637 16.2123L6.77517 15.9652M5.42637 16.2123C5.4412 16.4293 5.44736 16.6605 5.44242 16.9166M5.44242 16.9166C5.43847 17.1209 5.42746 17.341 5.40815 17.5825M5.40815 17.5825L7 17.3189M5.40815 17.5825C5.38821 17.8319 5.35943 18.1041 5.32043 18.4052M7 17.3189C7.09931 17.5426 7.22108 17.7491 7.35994 17.9395M5.32043 18.4052L7.35994 17.9395M5.32043 18.4052C5.29717 18.5847 5.27029 18.7746 5.23948 18.9759M7.35994 17.9395C7.43026 18.036 7.50495 18.1283 7.58333 18.2166M7.58333 18.2166L5.23948 18.9759M7.58333 18.2166C7.74216 18.3957 7.91611 18.5583 8.09938 18.7058M5.23948 18.9759C5.21156 19.1584 5.18043 19.3504 5.14587 19.5528M5.14587 19.5528L8.09938 18.7058M5.14587 19.5528C5.11767 19.7179 5.08719 19.8899 5.05431 20.0694M8.09938 18.7058C8.25519 18.8312 8.41774 18.9455 8.58346 19.0497M8.58346 19.0497L5.05431 20.0694M8.58346 19.0497C8.74706 19.1525 8.91375 19.2453 9.08011 19.3287M5.05431 20.0694C5.01345 20.2925 4.96887 20.5272 4.92036 20.7744M4.92036 20.7744L9.08011 19.3287M4.92036 20.7744C4.88676 20.9456 4.85127 21.1229 4.81382 21.3065M9.08011 19.3287C9.28895 19.4335 9.49726 19.5236 9.69825 19.6004M9.69825 19.6004L4.81382 21.3065M4.46327 22.75C4.37855 23.0058 4.27985 23.2733 4.17855 23.5453M4.17855 23.5453L10.8406 20.894M4.17855 23.5453C4.09153 23.779 4.00259 24.0161 3.91897 24.2521M10.8406 20.894C10.8329 21.1279 10.812 21.3579 10.7798 21.5833M10.7798 21.5833L3.91897 24.2521M10.7798 21.5833C10.7515 21.7815 10.7145 21.9761 10.6699 22.1666M3.91897 24.2521C3.81936 24.5332 3.72729 24.8128 3.65499 25.0833M3.65499 25.0833L10.6699 22.1666M3.65499 25.0833C3.58138 25.3587 3.52825 25.6246 3.50848 25.8732M10.6699 22.1666C10.6234 22.3657 10.5686 22.5604 10.5071 22.75M10.5071 22.75L3.50848 25.8732M10.5071 22.75C10.407 23.0583 10.289 23.3532 10.1591 23.6323M10.1591 23.6323C9.98637 24.0036 9.7927 24.3468 9.59244 24.6562M9.59244 24.6562L5.05431 26.5952M9.59244 24.6562C9.38678 24.9739 9.17418 25.2559 8.97019 25.4959M5.05431 26.5952C5.7765 26.4466 6.6138 26.3063 7.35994 26.2342M7.35994 26.2342C7.62046 26.209 7.86987 26.1921 8.09938 26.1861C8.21626 26.183 8.32894 26.146 8.41597 26.0691C8.58322 25.9212 8.77267 25.7283 8.97019 25.4959M7.35994 26.2342L8.97019 25.4959M11.7429 13.2121C12.0841 12.8758 12.0768 11.4121 12.1653 10.5921M15.0562 11.1714C15.2875 11.1714 15.475 10.9866 15.475 10.7586C15.475 10.5306 15.2875 10.3457 15.0562 10.3457M15.0562 11.1714C14.8248 11.1714 14.6373 10.9866 14.6373 10.7586C14.6373 10.5306 14.8248 10.3457 15.0562 10.3457M15.0562 11.1714V10.3457M9.13634 11.1714C9.36767 11.1714 9.5552 10.9866 9.5552 10.7586C9.5552 10.5306 9.36767 10.3457 9.13634 10.3457M9.13634 11.1714C8.90501 11.1714 8.71749 10.9866 8.71749 10.7586C8.71749 10.5306 8.90501 10.3457 9.13634 10.3457M9.13634 11.1714V10.3457M8.16667 8.41088C8.58389 8.10254 9.20972 8.06829 9.87032 8.41097M14.1777 8.41066C14.9426 8.13654 15.9161 8.41067 16.3333 9.02733M13.4643 15.7182C12.9483 16.6716 11.7428 16.3447 11.169 15.8861" stroke="black" stroke-linecap="round"/>
</svg>
