<svg width="28" height="29" viewBox="0 0 28 29" fill="none" xmlns="http://www.w3.org/2000/svg">
<path d="M5.88589 21.2058L3.42397 22.2757C2.794 22.5495 2.11449 22.0129 2.20369 21.3121L2.45923 19.3046C2.48154 19.1293 2.45412 18.9525 2.38354 18.7914C1.00233 15.6395 -0.365264 9.52099 5.30547 6.16194C10.8136 2.89921 15.2609 5.46162 17.9435 7.00719L17.9827 7.02981M14.5879 13.2704C14.5248 12.7479 15.098 11.2848 16.7364 11.6376C18.1897 11.9506 18.5057 13.597 17.4946 14.5767C16.9259 15.1889 16.155 16.2225 16.3572 17.3198M16.0168 19.5604C16.1892 19.7542 16.4732 19.81 16.7071 19.6784C16.9365 19.5493 17.0456 19.2808 16.9895 19.03M16.0168 19.5604C15.9859 19.5256 15.9586 19.4864 15.9357 19.4431C15.7856 19.1579 15.8875 18.801 16.1634 18.6458C16.4393 18.4906 16.7846 18.5959 16.9348 18.8811C16.96 18.9291 16.9782 18.9792 16.9895 19.03M16.0168 19.5604C16.2681 19.654 16.8145 19.679 16.9895 19.03M20.5923 23.4298C16.1573 24.4155 6.99737 24.8201 6.49947 16.7635C6.38224 14.8664 6.72928 13.3077 7.3963 12.0425C7.9987 10.8998 8.78837 10.0132 10.1212 9.14021C13.7824 6.8029 19.2524 6.98328 21.915 8.24729C23.8205 9.15183 29.4751 12.4651 25.3767 19.4958C25.2737 19.6725 25.2233 19.8837 25.2444 20.0889L25.5863 23.4034C25.652 24.0411 25.08 24.5493 24.4806 24.3858L21.0102 23.4394C20.8725 23.4018 20.7315 23.3988 20.5923 23.4298Z" stroke="black" stroke-linecap="round"/>
</svg>
